<mxfile host="Electron" agent="Mozilla/5.0 (Macintosh; Intel Mac OS X 10_15_7) AppleWebKit/537.36 (KHTML, like Gecko) draw.io/24.7.5 Chrome/126.0.6478.183 Electron/31.3.0 Safari/537.36" version="24.7.5">
  <diagram name="Page-1" id="pElQcQjkRAHEgcCCsfVA">
    <mxGraphModel dx="1080" dy="782" grid="1" gridSize="10" guides="1" tooltips="1" connect="1" arrows="1" fold="1" page="1" pageScale="1" pageWidth="827" pageHeight="583" math="0" shadow="0">
      <root>
        <mxCell id="0" />
        <mxCell id="1" parent="0" />
        <mxCell id="_7z8FOq97Lfbf4xDqrjI-1" value="&lt;font style=&quot;font-size: 18px;&quot;&gt;Server&lt;/font&gt;" style="shape=cylinder3;whiteSpace=wrap;html=1;boundedLbl=1;backgroundOutline=1;size=15;" vertex="1" parent="1">
          <mxGeometry x="555" y="37" width="140" height="120" as="geometry" />
        </mxCell>
        <mxCell id="_7z8FOq97Lfbf4xDqrjI-2" value="&lt;font style=&quot;font-size: 18px;&quot;&gt;Client&lt;/font&gt;" style="rounded=0;whiteSpace=wrap;html=1;" vertex="1" parent="1">
          <mxGeometry x="155" y="47" width="120" height="110" as="geometry" />
        </mxCell>
        <mxCell id="_7z8FOq97Lfbf4xDqrjI-4" value="" style="endArrow=classic;html=1;rounded=0;exitX=1;exitY=0.25;exitDx=0;exitDy=0;entryX=0;entryY=0;entryDx=0;entryDy=37.5;entryPerimeter=0;" edge="1" parent="1" source="_7z8FOq97Lfbf4xDqrjI-2" target="_7z8FOq97Lfbf4xDqrjI-1">
          <mxGeometry width="50" height="50" relative="1" as="geometry">
            <mxPoint x="485" y="327" as="sourcePoint" />
            <mxPoint x="535" y="277" as="targetPoint" />
          </mxGeometry>
        </mxCell>
        <mxCell id="_7z8FOq97Lfbf4xDqrjI-5" value="" style="endArrow=classic;html=1;rounded=0;exitX=0;exitY=0;exitDx=0;exitDy=82.5;exitPerimeter=0;entryX=1.019;entryY=0.658;entryDx=0;entryDy=0;entryPerimeter=0;" edge="1" parent="1" source="_7z8FOq97Lfbf4xDqrjI-1" target="_7z8FOq97Lfbf4xDqrjI-2">
          <mxGeometry width="50" height="50" relative="1" as="geometry">
            <mxPoint x="485" y="327" as="sourcePoint" />
            <mxPoint x="535" y="277" as="targetPoint" />
          </mxGeometry>
        </mxCell>
        <mxCell id="_7z8FOq97Lfbf4xDqrjI-6" value="&lt;font style=&quot;font-size: 14px;&quot;&gt;HTTP Request&lt;/font&gt;" style="text;html=1;align=center;verticalAlign=middle;whiteSpace=wrap;rounded=0;" vertex="1" parent="1">
          <mxGeometry x="365" y="47" width="100" height="30" as="geometry" />
        </mxCell>
        <mxCell id="_7z8FOq97Lfbf4xDqrjI-7" value="&lt;font style=&quot;font-size: 14px;&quot;&gt;HTTP Response&lt;/font&gt;" style="text;html=1;align=center;verticalAlign=middle;whiteSpace=wrap;rounded=0;" vertex="1" parent="1">
          <mxGeometry x="360" y="95" width="110" height="30" as="geometry" />
        </mxCell>
        <mxCell id="_7z8FOq97Lfbf4xDqrjI-8" value="&lt;font style=&quot;font-size: 18px;&quot;&gt;Server&lt;/font&gt;&lt;div&gt;&lt;font style=&quot;font-size: 18px;&quot;&gt;&lt;br&gt;&lt;/font&gt;&lt;/div&gt;&lt;div&gt;&lt;font style=&quot;font-size: 18px;&quot;&gt;&lt;br&gt;&lt;/font&gt;&lt;/div&gt;" style="shape=cylinder3;whiteSpace=wrap;html=1;boundedLbl=1;backgroundOutline=1;size=15;" vertex="1" parent="1">
          <mxGeometry x="555" y="213" width="140" height="130" as="geometry" />
        </mxCell>
        <mxCell id="_7z8FOq97Lfbf4xDqrjI-9" value="&lt;font style=&quot;font-size: 18px;&quot;&gt;Client&lt;/font&gt;" style="rounded=0;whiteSpace=wrap;html=1;" vertex="1" parent="1">
          <mxGeometry x="155" y="223" width="120" height="110" as="geometry" />
        </mxCell>
        <mxCell id="_7z8FOq97Lfbf4xDqrjI-10" value="" style="endArrow=classic;html=1;rounded=0;exitX=1;exitY=0.25;exitDx=0;exitDy=0;entryX=0;entryY=0;entryDx=0;entryDy=37.5;entryPerimeter=0;" edge="1" parent="1" source="_7z8FOq97Lfbf4xDqrjI-9" target="_7z8FOq97Lfbf4xDqrjI-8">
          <mxGeometry width="50" height="50" relative="1" as="geometry">
            <mxPoint x="485" y="503" as="sourcePoint" />
            <mxPoint x="535" y="453" as="targetPoint" />
          </mxGeometry>
        </mxCell>
        <mxCell id="_7z8FOq97Lfbf4xDqrjI-11" value="" style="endArrow=classic;html=1;rounded=0;exitX=0;exitY=0;exitDx=0;exitDy=82.5;exitPerimeter=0;entryX=1.019;entryY=0.658;entryDx=0;entryDy=0;entryPerimeter=0;" edge="1" parent="1">
          <mxGeometry width="50" height="50" relative="1" as="geometry">
            <mxPoint x="555" y="282.5" as="sourcePoint" />
            <mxPoint x="277.28" y="282.3799999999999" as="targetPoint" />
          </mxGeometry>
        </mxCell>
        <mxCell id="_7z8FOq97Lfbf4xDqrjI-12" value="&lt;font style=&quot;font-size: 14px;&quot;&gt;HTTP Request&lt;/font&gt;" style="text;html=1;align=center;verticalAlign=middle;whiteSpace=wrap;rounded=0;" vertex="1" parent="1">
          <mxGeometry x="365" y="223" width="100" height="30" as="geometry" />
        </mxCell>
        <mxCell id="_7z8FOq97Lfbf4xDqrjI-13" value="&lt;font style=&quot;font-size: 14px;&quot;&gt;Handshake / HTTP Upgrade&lt;/font&gt;" style="text;html=1;align=center;verticalAlign=middle;whiteSpace=wrap;rounded=0;" vertex="1" parent="1">
          <mxGeometry x="310" y="260" width="210" height="30" as="geometry" />
        </mxCell>
        <mxCell id="_7z8FOq97Lfbf4xDqrjI-14" value="" style="endArrow=classic;startArrow=classic;html=1;rounded=0;exitX=1.009;exitY=0.849;exitDx=0;exitDy=0;exitPerimeter=0;" edge="1" parent="1">
          <mxGeometry width="50" height="50" relative="1" as="geometry">
            <mxPoint x="278.0799999999999" y="316.3900000000001" as="sourcePoint" />
            <mxPoint x="552" y="316" as="targetPoint" />
          </mxGeometry>
        </mxCell>
        <mxCell id="_7z8FOq97Lfbf4xDqrjI-15" value="&lt;font style=&quot;font-size: 14px;&quot;&gt;Websocker&lt;/font&gt;" style="text;html=1;align=center;verticalAlign=middle;whiteSpace=wrap;rounded=0;" vertex="1" parent="1">
          <mxGeometry x="375" y="290" width="80" height="30" as="geometry" />
        </mxCell>
        <mxCell id="_7z8FOq97Lfbf4xDqrjI-24" value="&lt;font style=&quot;font-size: 18px;&quot;&gt;Server&lt;/font&gt;" style="shape=cylinder3;whiteSpace=wrap;html=1;boundedLbl=1;backgroundOutline=1;size=15;" vertex="1" parent="1">
          <mxGeometry x="555" y="402" width="140" height="120" as="geometry" />
        </mxCell>
        <mxCell id="_7z8FOq97Lfbf4xDqrjI-25" value="&lt;font style=&quot;font-size: 18px;&quot;&gt;Client&lt;/font&gt;&lt;div&gt;&lt;font style=&quot;font-size: 18px;&quot;&gt;&lt;br&gt;&lt;/font&gt;&lt;/div&gt;&lt;div&gt;&lt;font style=&quot;font-size: 18px;&quot;&gt;&lt;br&gt;&lt;/font&gt;&lt;/div&gt;" style="rounded=0;whiteSpace=wrap;html=1;" vertex="1" parent="1">
          <mxGeometry x="155" y="412" width="120" height="110" as="geometry" />
        </mxCell>
        <mxCell id="_7z8FOq97Lfbf4xDqrjI-26" value="" style="endArrow=classic;html=1;rounded=0;exitX=1;exitY=0.25;exitDx=0;exitDy=0;entryX=0;entryY=0;entryDx=0;entryDy=37.5;entryPerimeter=0;" edge="1" parent="1" source="_7z8FOq97Lfbf4xDqrjI-25" target="_7z8FOq97Lfbf4xDqrjI-24">
          <mxGeometry width="50" height="50" relative="1" as="geometry">
            <mxPoint x="485" y="692" as="sourcePoint" />
            <mxPoint x="535" y="642" as="targetPoint" />
          </mxGeometry>
        </mxCell>
        <mxCell id="_7z8FOq97Lfbf4xDqrjI-27" value="" style="endArrow=classic;html=1;rounded=0;exitX=0;exitY=0;exitDx=0;exitDy=82.5;exitPerimeter=0;entryX=1.019;entryY=0.658;entryDx=0;entryDy=0;entryPerimeter=0;" edge="1" parent="1" source="_7z8FOq97Lfbf4xDqrjI-24" target="_7z8FOq97Lfbf4xDqrjI-25">
          <mxGeometry width="50" height="50" relative="1" as="geometry">
            <mxPoint x="485" y="692" as="sourcePoint" />
            <mxPoint x="535" y="642" as="targetPoint" />
          </mxGeometry>
        </mxCell>
        <mxCell id="_7z8FOq97Lfbf4xDqrjI-28" value="&lt;font style=&quot;font-size: 14px;&quot;&gt;HTTP Request&lt;/font&gt;" style="text;html=1;align=center;verticalAlign=middle;whiteSpace=wrap;rounded=0;" vertex="1" parent="1">
          <mxGeometry x="365" y="412" width="100" height="30" as="geometry" />
        </mxCell>
        <mxCell id="_7z8FOq97Lfbf4xDqrjI-29" value="&lt;font style=&quot;font-size: 14px;&quot;&gt;HTTP Response&lt;/font&gt;" style="text;html=1;align=center;verticalAlign=middle;whiteSpace=wrap;rounded=0;" vertex="1" parent="1">
          <mxGeometry x="360" y="460" width="110" height="30" as="geometry" />
        </mxCell>
        <mxCell id="_7z8FOq97Lfbf4xDqrjI-30" value="&lt;font style=&quot;font-size: 18px;&quot;&gt;Wasm&lt;/font&gt;" style="rounded=1;whiteSpace=wrap;html=1;" vertex="1" parent="1">
          <mxGeometry x="175" y="469" width="80" height="40" as="geometry" />
        </mxCell>
        <mxCell id="_7z8FOq97Lfbf4xDqrjI-31" value="&lt;font style=&quot;font-size: 18px;&quot;&gt;R &amp;amp; Python&lt;/font&gt;" style="rounded=1;whiteSpace=wrap;html=1;" vertex="1" parent="1">
          <mxGeometry x="575" y="287" width="100" height="40" as="geometry" />
        </mxCell>
      </root>
    </mxGraphModel>
  </diagram>
</mxfile>
